<?xml version="1.0" ?><!DOCTYPE svg  PUBLIC '-//W3C//DTD SVG 1.1//EN'  'http://www.w3.org/Graphics/SVG/1.1/DTD/svg11.dtd'><svg height="6.82666in" style="shape-rendering:geometricPrecision; text-rendering:geometricPrecision; image-rendering:optimizeQuality; fill-rule:evenodd; clip-rule:evenodd" viewBox="0 0 6.82666 6.82666" width="6.82666in" xml:space="preserve" xmlns="http://www.w3.org/2000/svg" xmlns:xlink="http://www.w3.org/1999/xlink"><defs><style type="text/css">
   <![CDATA[
    .fil2 {fill:none}
    .fil0 {fill:#C2E4F8}
    .fil1 {fill:#0A93E2;fill-rule:nonzero}
   ]]>
  </style></defs><g id="Layer_x0020_1"><path class="fil0" d="M3.94802 2.87864c-0.000688976,-0.000688976 -0.00137402,-0.00137402 -0.00206299,-0.00206299 0.000677165,0.00069685 0.00135827,0.00138976 0.00206299,0.00206299zm0.45774 1.10514c0,-0.430543 -0.174079,-0.820425 -0.455677,-1.10308 3.93701e-005,4.33071e-005 8.26772e-005,8.26772e-005 0.000122047,0.000122047 0.0834646,0.081126 0.216894,0.0804055 0.299469,-0.00216929l0.142787 -0.142787 0.536957 -0.536957 -0.301669 -0.301669 -0.536957 0.536957 -0.142787 0.142787c-0.0825748,0.0825748 -0.0832953,0.216004 -0.00216929,0.299469 3.93701e-005,3.93701e-005 7.87402e-005,8.26772e-005 0.000122047,0.000122047 -0.282654,-0.281598 -0.672535,-0.455677 -1.10308,-0.455677 -0.431594,0 -0.822327,0.174929 -1.10514,0.45774 -0.282811,0.282815 -0.45774,0.673547 -0.45774,1.10514 0,0.431594 0.174929,0.822327 0.45774,1.10514 0.282815,0.282811 0.673547,0.45774 1.10514,0.45774 0.431594,0 0.822327,-0.174929 1.10514,-0.45774 0.282811,-0.282815 0.45774,-0.673547 0.45774,-1.10514z"/><path class="fil1" d="M4.83243 3.98378c0,0.549378 -0.222701,1.04676 -0.58274,1.40681 -0.360047,0.360039 -0.857433,0.58274 -1.40681,0.58274 -0.549378,0 -1.04676,-0.222701 -1.40681,-0.58274 -0.360039,-0.360047 -0.58274,-0.857433 -0.58274,-1.40681 0,-0.549378 0.222701,-1.04676 0.58274,-1.40681 0.360047,-0.360039 0.857433,-0.58274 1.40681,-0.58274 0.549378,0 1.04676,0.222701 1.40681,0.58274 0.360039,0.360047 0.58274,0.857433 0.58274,1.40681zm-0.884409 1.10514c0.282811,-0.282815 0.45774,-0.673547 0.45774,-1.10514 0,-0.431594 -0.174929,-0.822327 -0.45774,-1.10514 -0.282815,-0.282811 -0.673547,-0.45774 -1.10514,-0.45774 -0.431594,0 -0.822327,0.174929 -1.10514,0.45774 -0.282811,0.282815 -0.45774,0.673547 -0.45774,1.10514 0,0.431594 0.174929,0.822327 0.45774,1.10514 0.282815,0.282811 0.673547,0.45774 1.10514,0.45774 0.431594,0 0.822327,-0.174929 1.10514,-0.45774z"/><path class="fil1" d="M5.91083 1.2175c0.0833031,-0.0833031 0.0833031,-0.218366 0,-0.301669 -0.0833031,-0.0833031 -0.218366,-0.0833031 -0.301669,0l-1.66116 1.66116c-0.0833031,0.0833031 -0.0833031,0.218366 0,0.301669 0.0833031,0.0833031 0.218366,0.0833031 0.301669,0l1.66116 -1.66116z"/><path class="fil1" d="M5.50215 2.77165c0.0833031,0.0833031 0.218366,0.0833031 0.301669,0 0.0833031,-0.0833031 0.0833031,-0.218366 0,-0.301669l-1.44714 -1.44714c-0.0833031,-0.0833031 -0.218366,-0.0833031 -0.301669,0 -0.0833031,0.0833031 -0.0833031,0.218366 0,0.301669l1.44714 1.44714z"/></g><rect class="fil2" height="6.82666" width="6.82666"/></svg>